<svg xmlns="http://www.w3.org/2000/svg" viewBox="0 0 64 64" role="img" aria-label="Field notes">
  <path d="M17 8h27c4 0 7 3 7 7v38c0 2-2 4-4 4H17c-2 0-4-2-4-4V12c0-2 2-4 4-4z" fill="#fff8eb" stroke="#1a2423" stroke-width="3"/>
  <path d="M20 18h20M20 27h18M20 36h14" stroke="#74b7c8" stroke-width="3" stroke-linecap="round"/>
  <path d="M39 43 52 30c2-2 5-2 7 0s2 5 0 7L46 50l-9 3 2-10z" fill="#d27b4c" stroke="#1a2423" stroke-width="3" stroke-linejoin="round"/>
  <path d="m49 33 7 7" stroke="#fff8eb" stroke-width="3" stroke-linecap="round"/>
  <path d="m39 43 7 7" stroke="#1a2423" stroke-width="2" stroke-linecap="round"/>
</svg>
